<svg xmlns="http://www.w3.org/2000/svg" viewBox="0 0 100 100" width="40" height="40">
  <rect width="100" height="100" fill="#1E293B" rx="12" />

  <line x1="15" y1="20" x2="85" y2="20" stroke="#FFFFFF" stroke-width="1.5" stroke-dasharray="4 4" opacity="0.15" />
  <line x1="15" y1="40" x2="85" y2="40" stroke="#FFFFFF" stroke-width="1.5" stroke-dasharray="4 4" opacity="0.15" />
  <line x1="15" y1="60" x2="85" y2="60" stroke="#FFFFFF" stroke-width="1.5" stroke-dasharray="4 4" opacity="0.15" />

  <line x1="15" y1="15" x2="15" y2="80" stroke="#FFFFFF" stroke-width="3" stroke-linecap="round" opacity="0.7" />
  <line x1="15" y1="80" x2="85" y2="80" stroke="#FFFFFF" stroke-width="3" stroke-linecap="round" opacity="0.7" />

  <rect x="25" y="55" width="10" height="25" rx="2" fill="#FFFFFF" opacity="0.4" />
  <rect x="42" y="35" width="10" height="45" rx="2" fill="#FFFFFF" opacity="0.6" />
  <rect x="59" y="45" width="10" height="35" rx="2" fill="#FFFFFF" opacity="0.5" />
  <rect x="76" y="25" width="10" height="55" rx="2" fill="#FFFFFF" opacity="0.8" />

  <path d="M 30 50 L 47 30 L 64 40 L 81 18" fill="none" stroke="#FFFFFF" stroke-width="4" stroke-linecap="round" stroke-linejoin="round" />

  <circle cx="30" cy="50" r="3.5" fill="#1E293B" stroke="#FFFFFF" stroke-width="2.5" />
  <circle cx="47" cy="30" r="3.5" fill="#1E293B" stroke="#FFFFFF" stroke-width="2.5" />
  <circle cx="64" cy="40" r="3.5" fill="#1E293B" stroke="#FFFFFF" stroke-width="2.5" />
  <circle cx="81" cy="18" r="3.5" fill="#1E293B" stroke="#FFFFFF" stroke-width="2.5" />
</svg>
